<?xml version="1.0" encoding="UTF-8"?>
<svg xmlns="http://www.w3.org/2000/svg" xmlns:xlink="http://www.w3.org/1999/xlink" width="30px" height="30px" viewBox="0 0 30 30" version="1.1">
<g id="surface1">
<path style=" stroke:none;fill-rule:nonzero;fill:rgb(67.058824%,56.862745%,91.764706%);fill-opacity:1;" d="M 0 15 C 0 23.285156 6.714844 30 15 30 C 23.285156 30 30 23.285156 30 15 C 30 6.714844 23.285156 0 15 0 C 6.714844 0 0 6.714844 0 15 Z M 0 15 "/>
<path style=" stroke:none;fill-rule:nonzero;fill:rgb(58.039216%,47.843137%,85.882353%);fill-opacity:1;" d="M 30 15 C 30 14.097656 29.914062 13.214844 29.761719 12.359375 C 29.753906 12.351562 29.742188 12.34375 29.730469 12.335938 C 29.71875 12.320312 29.714844 12.300781 29.699219 12.285156 C 29.683594 12.269531 24.984375 7.570312 24.96875 7.558594 C 24.808594 7.390625 24.539062 7.390625 24.375 7.550781 L 10.300781 21.421875 L 10.273438 21.394531 C 10.269531 21.390625 10.265625 21.386719 10.261719 21.382812 L 5.632812 16.753906 C 5.476562 16.585938 5.210938 16.578125 5.039062 16.738281 C 4.871094 16.894531 4.863281 17.164062 5.023438 17.332031 L 9.859375 22.4375 C 9.863281 22.441406 9.867188 22.441406 9.875 22.445312 L 9.945312 22.523438 C 9.949219 22.527344 17.214844 29.792969 17.214844 29.792969 C 17.21875 29.796875 17.222656 29.796875 17.226562 29.800781 L 17.253906 29.832031 C 24.46875 28.742188 30 22.519531 30 15 Z M 30 15 "/>
<path style=" stroke:none;fill-rule:nonzero;fill:rgb(95.686275%,96.470588%,97.647059%);fill-opacity:1;" d="M 24.96875 7.558594 C 24.808594 7.390625 24.539062 7.390625 24.375 7.550781 L 10.175781 21.546875 L 5.632812 16.753906 C 5.476562 16.585938 5.210938 16.578125 5.039062 16.738281 C 4.871094 16.894531 4.863281 17.164062 5.023438 17.332031 L 9.859375 22.4375 C 9.9375 22.519531 10.042969 22.566406 10.15625 22.566406 L 10.164062 22.566406 C 10.273438 22.566406 10.382812 22.523438 10.460938 22.449219 L 24.964844 8.152344 C 25.132812 7.988281 25.132812 7.722656 24.96875 7.558594 Z M 24.96875 7.558594 "/>
</g>
</svg>
